<svg width="21" height="21" viewBox="0 0 21 21" fill="none" xmlns="http://www.w3.org/2000/svg">
<path d="M18.575 17.1974C19.6529 15.9016 20.4025 14.3655 20.7606 12.719C21.1186 11.0725 21.0745 9.36404 20.632 7.73818C20.1895 6.11232 19.3615 4.61687 18.2183 3.37834C17.075 2.13981 15.6499 1.19463 14.0637 0.622765C12.4775 0.0508981 10.7768 -0.130834 9.10548 0.0929422C7.43412 0.316718 5.84129 0.93942 4.46173 1.90837C3.08216 2.87732 1.95646 4.16401 1.17984 5.6596C0.403216 7.15518 -0.001473 8.81566 4.02861e-06 10.5006C0.000570814 12.95 0.86443 15.3209 2.44 17.1974L2.42499 17.2101C2.47752 17.2731 2.53757 17.3271 2.59161 17.3893C2.65915 17.4666 2.73196 17.5393 2.80176 17.6143C3.01191 17.8423 3.22806 18.0613 3.45472 18.2668C3.52377 18.3297 3.59507 18.3882 3.66487 18.4482C3.90504 18.6552 4.15197 18.8517 4.4079 19.0347C4.44093 19.0572 4.47095 19.0864 4.50397 19.1097V19.1007C6.2618 20.3367 8.3588 21 10.5083 21C12.6577 21 14.7547 20.3367 16.5125 19.1007V19.1097C16.5456 19.0864 16.5748 19.0572 16.6086 19.0347C16.8638 18.8509 17.1115 18.6552 17.3516 18.4482C17.4214 18.3882 17.4927 18.329 17.5618 18.2668C17.7885 18.0605 18.0046 17.8423 18.2148 17.6143C18.2846 17.5393 18.3566 17.4666 18.4249 17.3893C18.4782 17.3271 18.539 17.2731 18.5915 17.2094L18.575 17.1974ZM10.5075 4.50121C11.1755 4.50121 11.8285 4.69913 12.3839 5.06994C12.9393 5.44075 13.3722 5.9678 13.6278 6.58444C13.8835 7.20107 13.9503 7.8796 13.82 8.53422C13.6897 9.18883 13.368 9.79013 12.8957 10.2621C12.4234 10.734 11.8216 11.0554 11.1664 11.1857C10.5113 11.3159 9.83217 11.249 9.21503 10.9936C8.59789 10.7382 8.07041 10.3057 7.69929 9.75071C7.32818 9.19575 7.1301 8.5433 7.1301 7.87586C7.1301 6.98084 7.48593 6.12249 8.11932 5.48962C8.75271 4.85676 9.61176 4.50121 10.5075 4.50121ZM4.50847 17.1974C4.52149 16.2127 4.92198 15.2727 5.62329 14.5808C6.3246 13.889 7.27034 13.5008 8.2559 13.5003H12.7591C13.7447 13.5008 14.6904 13.889 15.3917 14.5808C16.093 15.2727 16.4935 16.2127 16.5065 17.1974C14.8605 18.6795 12.7233 19.4997 10.5075 19.4997C8.29173 19.4997 6.15452 18.6795 4.50847 17.1974Z" fill="black"/>
</svg>
