<svg width="165" height="76" viewBox="0 0 165 76" fill="none" xmlns="http://www.w3.org/2000/svg">
<path d="M30.9671 14.2256C31.2107 14.1408 31.5138 14.0415 31.8762 13.9277C32.2447 13.7873 32.472 13.7128 32.558 13.7044C32.6441 13.6959 32.7732 13.6833 32.9453 13.6663C33.144 13.6555 33.304 13.6919 33.4252 13.7756C33.5524 13.8326 33.7105 13.9387 33.8996 14.0939C34.0147 14.2043 33.9703 14.4606 33.7666 14.8629C33.7059 15.1295 33.5743 15.3379 33.3718 15.4881C33.2021 15.6177 32.9821 15.7219 32.7118 15.8006C32.4682 15.8853 32.2972 15.9586 32.199 16.0204C32.0948 16.1088 31.7342 16.1529 31.1173 16.1527C30.5065 16.1258 30.1519 16.1432 30.0538 16.205C29.4949 16.4424 28.4453 16.6801 26.9047 16.9183C26.3496 17.0163 25.9521 17.038 25.7121 16.9834C25.4722 16.9287 25.2801 16.7869 25.136 16.5577C24.924 16.2571 24.9447 15.9814 25.1981 15.7306C25.7751 15.4132 26.7672 15.1203 28.1744 14.8518C29.5877 14.5565 30.5186 14.3478 30.9671 14.2256ZM10.4756 22.0118C10.5373 22.11 10.7482 22.0458 11.1083 21.8193C11.5011 21.5722 11.8896 21.2821 12.2739 20.9489C12.6849 20.6218 12.9334 20.4541 13.0195 20.4456C13.2365 20.3548 13.6832 19.9938 14.3597 19.3626C15.0363 18.7314 15.2934 18.3412 15.131 18.1921C15.0426 18.0878 14.6359 18.1495 13.9111 18.3771C13.2189 18.5841 12.7922 18.7954 12.631 19.0111C12.3982 19.2946 12.1842 19.3721 11.9891 19.2436C11.8268 19.0944 11.7226 18.8744 11.6767 18.5835C11.701 18.4769 11.8919 18.2539 12.2496 17.9147C12.6133 17.5488 12.9097 17.2938 13.1389 17.1497C13.5522 16.9353 14.0068 16.7864 14.5025 16.7029C15.0043 16.5928 15.5055 16.6088 16.006 16.7507C16.5125 16.8661 16.8997 17.1365 17.1674 17.562C17.3429 18.0226 17.1112 18.6709 16.4722 19.507C15.8392 20.3164 15.0573 20.9796 14.1263 21.4968C13.9359 21.5937 13.5565 21.8439 12.9879 22.2472C12.4521 22.63 11.9805 22.9153 11.5732 23.103C11.1987 23.2701 10.7993 23.3615 10.3751 23.3771C10.2478 23.3201 10.1351 23.3224 10.0369 23.3842C9.93873 23.446 9.8581 23.5538 9.79502 23.7077C9.73194 23.8616 9.66886 24.0155 9.60578 24.1694C9.57543 24.3027 9.53598 24.476 9.48742 24.6893C9.44493 24.876 9.41458 25.0093 9.39638 25.0893C9.33199 25.4952 9.37978 25.7165 9.53975 25.7529C9.72639 25.7954 10.1452 25.6804 10.7961 25.4079C11.2095 25.1935 11.7489 24.9798 12.4143 24.7668C13.0798 24.5537 13.518 24.4151 13.7289 24.3509C14.2999 24.0602 14.8307 24.0689 15.3215 24.3769C15.8389 24.691 15.9775 25.1292 15.7373 25.6915C15.6378 26.0054 15.4686 26.3174 15.2297 26.6276C14.9909 26.9378 14.6568 27.2964 14.2276 27.7035C13.7984 28.1105 13.5317 28.3583 13.4274 28.4467C13.168 28.7242 12.8643 28.9495 12.5164 29.1227C12.1685 29.2959 11.8872 29.4842 11.6726 29.6878C11.0228 30.325 10.301 30.5393 9.50718 30.3305C9.03334 30.1946 8.84313 29.9831 8.93656 29.6959C8.98512 29.4826 9.17002 29.2863 9.49126 29.107C9.99675 28.8576 10.7526 28.3706 11.7588 27.6462C12.7711 26.8951 13.2955 26.4396 13.3319 26.2797C13.3538 26.0603 13.0792 26.0959 12.5083 26.3866C12.1543 26.5865 11.6028 26.8535 10.8536 27.1877C10.1106 27.4953 9.60692 27.6751 9.34269 27.7271C8.93908 27.7755 8.55172 28.122 8.18062 28.7666C7.80952 29.4112 7.48263 30.108 7.19996 30.8569C6.9173 31.6058 6.68806 32.0584 6.51227 32.2147C6.36314 32.3771 6.15526 32.4279 5.88864 32.3672C5.62203 32.3065 5.43301 32.1513 5.3216 31.9016C5.16055 31.5004 5.15644 31.1489 5.30926 30.8471C5.46208 30.5454 5.68221 30.1328 5.96964 29.6093C6.28374 29.0919 6.4578 28.6969 6.49184 28.4242C6.55492 28.2703 6.67804 27.9758 6.86121 27.5408C7.05045 27.0791 7.15417 26.8083 7.17238 26.7283C7.22332 26.6277 7.32705 26.3568 7.48355 25.9157C7.64006 25.4746 7.72016 25.1844 7.72384 25.045C7.76026 24.885 7.85553 24.5281 8.00966 23.9743C8.19045 23.4266 8.30393 22.9897 8.3501 22.6637C8.52981 21.7511 8.77498 20.7974 9.08561 19.8024C9.39624 18.8075 9.62255 18.0598 9.76454 17.5593C9.97329 16.7655 10.0856 16.2723 10.1014 16.0796C10.1439 15.8929 10.1312 15.7639 10.0634 15.6923C9.93613 15.6353 9.77128 15.6819 9.56882 15.8321C9.3215 16.0563 8.93902 16.3197 8.42139 16.6225C7.90983 16.8987 7.56192 17.0719 7.37767 17.1421C7.04798 17.2353 6.78136 17.1746 6.57783 16.96C6.38036 16.7188 6.3653 16.477 6.53264 16.2346C6.64297 16.1195 7.39341 15.5332 8.78395 14.4756C10.2011 13.4241 10.9516 12.8378 11.0353 12.7166C11.1844 12.5543 11.5178 12.3217 12.0354 12.0189C12.5858 11.6955 12.9252 11.4363 13.0538 11.2412C13.2211 10.9988 13.4133 10.8323 13.6302 10.7414C13.8739 10.6567 14.1241 10.7277 14.381 10.9544C14.4779 11.1447 14.3917 11.4616 14.1225 11.9051C13.8533 12.3486 13.4804 12.7545 13.004 13.1228L12.5257 13.5607L12.0087 15.4622C11.0924 18.8712 10.5506 20.6968 10.3832 20.9392C10.3323 21.0397 10.2886 21.17 10.2522 21.33C10.2158 21.4899 10.2091 21.6427 10.232 21.7881C10.2817 21.9396 10.3628 22.0142 10.4756 22.0118ZM35.3707 22.968C34.6584 25.3578 33.5593 26.5519 32.0734 26.5501C31.8831 26.647 31.385 26.6177 30.579 26.4623C29.7731 26.3069 29.3017 26.2837 29.1647 26.3927C28.8991 26.6968 28.4484 28.1225 27.8124 30.6699C27.5611 31.6503 27.2905 32.6544 27.0004 33.682C26.7165 34.683 26.4033 35.8737 26.061 37.254L25.3837 40.0444L24.9945 40.4606C24.6247 40.8531 24.3302 41.0384 24.1108 41.0165C23.912 41.0274 23.6727 40.8467 23.3929 40.4745C22.9034 39.9144 22.9746 39.3557 23.6062 38.7984C23.7601 38.8615 23.9809 38.3228 24.2685 37.1825C24.5889 36.0215 24.9069 34.7478 25.2226 33.3614C25.5443 31.9483 25.7815 31.0909 25.9343 30.7892C26.1782 30.0876 26.4166 29.2865 26.6497 28.3861C26.9154 27.4651 27.1223 26.741 27.2704 26.2138C27.5264 25.4589 27.6011 25.0692 27.4944 25.045C27.2751 25.0231 26.8738 25.1841 26.2908 25.5281C25.7404 25.8515 25.1155 26.2561 24.416 26.7418C23.7165 27.2276 23.3013 27.5116 23.1703 27.594C22.6018 27.9974 22.1708 28.1657 21.8776 28.0989C21.611 28.0382 21.3674 27.8145 21.147 27.4278L21.6477 25.2283C21.9488 23.7825 22.1365 22.7735 22.2106 22.2015L22.3127 21.3835L22.8528 21.0437C23.2395 20.8232 23.5261 20.7343 23.7128 20.7768C23.8194 20.801 23.8739 20.8695 23.8763 20.9823C23.9114 21.0744 23.8847 21.3768 23.796 21.8894C23.7097 22.5148 23.6574 23.1759 23.6389 23.8728C23.6205 24.5697 23.6482 24.9405 23.7221 24.9854C24.2361 24.822 24.9913 24.4611 25.9877 23.9027C27.0169 23.3238 27.5776 23.0167 27.6697 22.9816L28.3298 22.6691L28.8159 20.7186C29.0587 19.6522 29.2522 18.925 29.3966 18.5373C29.5676 18.1555 29.8035 17.8587 30.1041 17.6467C30.3987 17.4614 30.6763 17.4124 30.9368 17.4997C31.2919 17.6647 31.4748 17.8466 31.4857 18.0453C31.5231 18.2502 31.4193 18.8295 31.1741 19.7832C30.8986 20.8703 30.8245 21.4423 30.9517 21.4993C31.0317 21.5175 31.2457 21.44 31.5936 21.2669C32.0336 21.0586 32.5475 20.8951 33.1354 20.7766C33.7499 20.6641 34.2171 20.6442 34.5371 20.7171C35.017 20.8263 35.3169 21.0488 35.4367 21.3846C35.5627 21.6937 35.5407 22.2215 35.3707 22.968ZM33.6692 22.4966C33.599 22.3123 33.4451 22.2492 33.2075 22.3073C32.976 22.3388 32.4591 22.5155 31.6566 22.8376C31.0384 23.0895 30.6444 23.2802 30.4747 23.4099C30.3377 23.5189 30.2164 23.7437 30.1109 24.0842C29.9726 24.4453 29.9652 24.7241 30.0887 24.9205C30.2123 25.1168 30.4534 25.2278 30.8122 25.2534C31.5054 25.4112 32.1575 25.1951 32.7686 24.6051C33.4063 24.0212 33.7065 23.3183 33.6692 22.4966ZM69.725 20.7775C69.2185 20.6622 69.3895 20.2805 70.2381 19.6324C70.3157 19.5379 70.4036 19.4598 70.5018 19.398C70.7309 19.2538 70.9044 18.9848 71.0221 18.591C71.1907 18.0965 71.1551 17.822 70.9151 17.7674C70.7018 17.7188 70.0279 17.8458 68.8934 18.1484C68.2158 18.4148 67.5462 18.2764 66.8846 17.7332C66.755 17.5635 66.7231 17.1496 66.7887 16.4915C66.8605 15.8067 66.8643 15.3589 66.8001 15.148C66.7275 14.851 66.7246 14.5559 66.7914 14.2626C66.8581 13.9694 66.96 13.7682 67.097 13.6592C67.2607 13.5562 67.4594 13.5454 67.6933 13.6267C67.9333 13.6813 68.115 13.8068 68.2386 14.0032C68.3561 14.2262 68.397 14.9086 68.3615 16.0503C68.3723 16.2491 68.3953 16.3945 68.4304 16.4866C68.4655 16.5787 68.5364 16.637 68.643 16.6612C68.7824 16.6649 68.8982 16.6492 68.9903 16.6141C69.1091 16.585 69.2739 16.5384 69.4848 16.4743C69.7224 16.4162 69.9272 16.3787 70.0993 16.3618C70.6278 16.2578 71.0211 16.1931 71.2793 16.1677C71.5374 16.1423 71.7732 16.1539 71.9865 16.2025C72.2325 16.2305 72.3967 16.3099 72.4791 16.4408C72.5675 16.5451 72.6541 16.7191 72.7388 16.9627C72.8318 17.9093 72.5097 18.8315 71.7725 19.7293C71.0413 20.6005 70.3588 20.9499 69.725 20.7775ZM66.3962 20.9872C66.5272 20.9048 66.7284 20.6983 67 20.3675C67.3044 20.0161 67.5844 19.7714 67.8402 19.6333C68.096 19.4953 68.3656 19.5426 68.6492 19.7754C68.746 19.9658 68.7211 20.1985 68.5744 20.4735C68.4276 20.7486 68.2797 20.9673 68.1305 21.1297C68.0141 21.2714 67.8292 21.4677 67.5758 21.7185C67.3285 21.9426 67.16 22.1286 67.0702 22.2764C66.8435 22.5333 66.2397 23.153 65.2588 24.1356C64.3107 25.0975 63.7591 25.673 63.6038 25.862C63.371 26.1456 63.0971 26.3636 62.7819 26.5162C62.4728 26.6421 62.2249 26.6839 62.0383 26.6414C61.8844 26.5783 61.7868 26.514 61.7457 26.4486C61.7311 26.3892 61.7615 26.2559 61.8367 26.0486C61.8441 25.7699 62.092 25.4197 62.5806 24.9981C63.0753 24.5499 63.3614 24.2785 63.439 24.184C63.6597 23.9538 64.6454 22.8882 66.3962 20.9872ZM57.1632 19.6004C57.2432 19.6186 57.5474 19.5757 58.0759 19.4716C58.6043 19.3676 58.9219 19.3277 59.0285 19.352C59.3218 19.4187 59.4811 19.5812 59.5065 19.8394C59.5646 20.0769 59.4863 20.2975 59.2717 20.501C59.2596 20.5544 59.102 20.6307 58.799 20.7299C58.5287 20.8086 58.162 20.8794 57.699 20.9422C57.2627 21.0112 56.8263 21.0801 56.39 21.149C55.9597 21.1913 55.5131 21.2438 55.0501 21.3067C54.6198 21.3489 54.3483 21.3713 54.2356 21.3736C54.1762 21.3882 54.0738 21.4069 53.9283 21.4299C53.8156 21.4323 53.7296 21.4407 53.6702 21.4553C53.6435 21.4492 53.5738 21.4473 53.4611 21.4497C53.3544 21.4254 53.2745 21.4072 53.2211 21.3951C53.1678 21.383 53.1012 21.3678 53.0212 21.3496C52.9739 21.3108 52.9297 21.2586 52.8885 21.1932C52.874 21.1338 52.8492 21.058 52.8141 20.9659C52.7681 20.675 52.8852 20.4072 53.1652 20.1625C53.472 19.9238 53.818 19.8203 54.2034 19.852C54.4228 19.8739 54.9094 19.8304 55.6633 19.7216C56.4439 19.6189 56.9438 19.5785 57.1632 19.6004ZM53.594 25.8547C53.3807 25.8062 53.245 25.6631 53.1869 25.4256C53.1616 25.1674 53.2059 24.9111 53.3199 24.6566C53.3806 24.39 53.5164 24.2246 53.7274 24.1604C53.971 24.0757 54.2486 24.0267 54.56 24.0135C54.8715 24.0003 55.0958 23.9391 55.2328 23.8301C55.6461 23.6157 56.0462 23.3983 56.4329 23.1779C56.8196 22.9574 57.1142 22.7721 57.3166 22.6219C57.5191 22.4717 57.8064 22.2567 58.1786 21.9768C58.5508 21.697 58.8084 21.4892 58.9514 21.3536C59.3199 21.2131 59.5587 21.2114 59.6677 21.3484C59.7828 21.4587 59.7518 21.718 59.5747 22.1264C59.4364 22.4875 59.1291 22.8522 58.6526 23.2205C57.667 23.9776 56.6493 24.6293 55.5995 25.1756C54.5825 25.7012 53.914 25.9276 53.594 25.8547ZM70.0651 25.5662C69.7451 25.4934 69.3028 25.2805 68.7382 24.9276C68.2002 24.5808 67.9312 24.4074 67.9312 24.4074C67.6112 24.3346 67.5616 24.1831 67.7823 23.9529C67.9314 23.7905 68.1514 23.6864 68.4423 23.6404C69.4919 23.7111 70.9588 24.2273 72.8431 25.1891C73.6332 25.5372 74.0858 25.7665 74.2009 25.8768C74.3426 25.9932 74.3832 26.1847 74.3225 26.4513C74.2496 26.7713 74.1017 26.99 73.8786 27.1075C73.4447 27.2891 72.6231 27.0179 71.4138 26.2939C70.7279 25.8574 70.2784 25.6148 70.0651 25.5662ZM59.6265 44.8113C59.9609 44.9435 60.3523 45.2569 60.8005 45.7516C61.2815 46.2257 61.7164 46.7173 62.1053 47.2265C62.5269 47.715 62.7952 48.0145 62.9103 48.1248C63.2678 48.4025 63.7209 48.8141 64.2697 49.3597C64.8452 49.9114 65.359 50.3649 65.8109 50.7202C68.0197 52.5971 69.2046 53.7362 69.3656 54.1375C69.4298 54.3484 69.4376 54.5605 69.389 54.7738C69.3611 55.0198 69.2653 55.1943 69.1016 55.2972C68.7416 55.5237 68.063 55.1169 67.0659 54.0766C66.6916 53.6268 66.2548 53.2049 65.7556 52.8108C65.2831 52.4228 64.9893 52.1736 64.8742 52.0633C64.5555 51.7384 63.9061 51.1418 62.9259 50.2737C61.9457 49.4056 61.2037 48.6617 60.6997 48.0422C60.5083 47.7743 60.2503 47.4912 59.9256 47.1929C59.6336 46.8741 59.3919 46.5807 59.2005 46.3128C59.0503 46.1103 58.9249 45.9836 58.8243 45.9327C58.7565 45.8611 58.5892 45.795 58.3226 45.7343C58.0766 45.7064 57.8912 45.7202 57.7663 45.7759C57.6742 45.8111 57.4554 45.9716 57.1098 46.2575C55.7811 47.4132 54.2984 48.5059 52.6618 49.5355C51.4508 50.2974 50.6477 50.7455 50.2525 50.8799C49.878 51.047 49.5992 51.0397 49.4163 50.8578C49.2478 50.7353 49.1685 50.5911 49.1783 50.425C49.188 50.259 49.2541 50.0918 49.3766 49.9233C49.5197 49.7877 49.6494 49.6489 49.7658 49.5072C49.9028 49.3981 50.0428 49.2758 50.1859 49.1401C50.3556 49.0105 50.4599 48.922 50.4987 48.8748C50.9279 48.4677 51.5807 48.1256 52.457 47.8483C53.3334 47.5711 53.9698 47.2392 54.3663 46.8528C54.4827 46.711 54.8506 46.3881 55.4701 45.8842C56.0957 45.3536 56.6722 44.8538 57.1996 44.385C57.727 43.9161 57.9834 43.652 57.9689 43.5926C57.9132 43.4678 57.6744 43.4695 57.2526 43.5978C56.8308 43.7261 56.5563 43.7618 56.429 43.7048C56.1563 43.6707 55.9709 43.6846 55.8727 43.7464C55.8012 43.8142 55.6429 44.0166 55.398 44.3534C55.0633 44.8381 54.7227 45.041 54.3761 44.9621C54.2427 44.9317 54.104 44.802 53.9599 44.5729C53.8424 44.3498 53.8255 44.1777 53.9092 44.0565C53.9662 43.9293 54.2252 43.161 54.6863 41.7516C55.1474 40.3422 55.4258 39.5503 55.5216 39.3758C55.9413 38.5179 56.5036 37.0334 57.2085 34.9224C57.9462 32.7907 58.4066 31.5074 58.5898 31.0724C58.7705 30.5246 58.9222 30.1665 59.0446 29.9981C59.1938 29.8358 59.4302 29.7213 59.7538 29.6548C60.2229 29.5653 60.5531 29.6545 60.7445 29.9224C60.9626 30.1964 60.8794 30.4999 60.4951 30.8331C59.9131 31.5419 59.5523 32.2029 59.4127 32.8161C59.3459 33.1094 59.4271 33.184 59.6562 33.0398C59.7544 32.978 59.8617 32.8763 59.9781 32.7345C60.0496 32.6667 60.16 32.5516 60.3091 32.3892C60.4582 32.2269 60.5686 32.1118 60.6401 32.0439C60.7116 31.9761 60.8189 31.8743 60.962 31.7386C61.1051 31.6029 61.2093 31.5145 61.2748 31.4733C61.373 31.4115 61.5039 31.3292 61.6676 31.2262C61.8579 31.1293 61.993 31.09 62.073 31.1082C62.1857 31.1058 62.3312 31.0828 62.5093 31.0393C62.7203 30.9751 62.8863 30.9849 63.0075 31.0685C63.1614 31.1316 63.3613 31.1771 63.6074 31.2051C64.8301 31.6237 65.3782 32.6038 65.2516 34.1454C65.1664 35.1355 64.9793 36.3269 64.6903 37.7193C64.4074 39.0851 63.9882 40.4339 63.4326 41.7657C62.877 43.0975 62.2889 43.833 61.6684 43.9721C61.478 44.069 61.2435 44.1138 60.9647 44.1064C60.7187 44.0784 60.5812 44.005 60.5521 43.8863C60.2747 43.6268 59.9674 43.683 59.6304 44.055C59.4036 44.3118 59.2781 44.4936 59.2538 44.6002C59.2623 44.6863 59.3865 44.7566 59.6265 44.8113ZM63.6194 33.1849C63.4668 32.8697 63.1281 32.6945 62.6033 32.6591C62.4312 32.676 62.113 32.842 61.6487 33.1569C61.2171 33.4513 60.8 33.805 60.3975 34.2181C59.8398 34.8203 59.6409 35.1396 59.8009 35.176C59.8542 35.1881 59.9105 35.187 59.9699 35.1724C60.925 35.1655 61.8037 35.001 62.6062 34.6789C63.5456 34.2478 63.8834 33.7498 63.6194 33.1849ZM62.5675 36.1424C62.2317 36.2622 61.5487 36.4292 60.5184 36.6434C59.4882 36.8575 58.8094 37.0676 58.4821 37.2735C57.7026 37.741 57.5376 38.0961 57.9872 38.3386C58.1435 38.5144 58.8216 38.4305 60.0216 38.0867C61.2482 37.749 61.9452 37.459 62.1126 37.2166C62.2496 37.1076 62.4266 37.0077 62.6436 36.9169C62.8666 36.7994 63.0303 36.6964 63.1345 36.608C63.2715 36.4989 63.3716 36.3675 63.4346 36.2136C63.3887 35.9227 63.0996 35.899 62.5675 36.1424ZM62.5788 39.9729L62.7772 39.4712C62.9131 38.9973 62.9441 38.738 62.8702 38.6931C62.7962 38.6482 62.5229 38.7403 62.0501 38.9691C61.4853 39.2332 60.6222 39.5134 59.461 39.8099C58.3326 40.0859 57.7241 40.1717 57.6357 40.0674C57.283 40.0152 57.0576 40.0199 56.9594 40.0817C56.8878 40.1496 56.7872 40.4071 56.6573 40.8542C56.57 41.1148 56.5602 41.2808 56.628 41.3524C56.7286 41.4033 56.905 41.4294 57.157 41.4307C57.4152 41.4054 57.6079 41.4212 57.7351 41.4782C58.3399 41.5318 59.1302 41.263 60.1061 40.6719C61.1147 40.0602 61.8056 39.7968 62.1789 39.8818L62.5788 39.9729ZM61.4235 42.2758C61.3459 42.3703 61.3174 42.434 61.338 42.4667C61.3853 42.5055 61.461 42.4807 61.5653 42.3922C61.6551 42.2444 61.6733 42.1644 61.6199 42.1523C61.5666 42.1401 61.5012 42.1813 61.4235 42.2758ZM100.459 30.4244C99.6612 31.5889 98.6645 32.7641 97.469 33.9502C96.3002 35.1424 95.0745 36.1534 93.792 36.9831C93.301 37.292 92.8858 37.5761 92.5463 37.8353C92.2396 38.074 91.9165 38.3229 91.5771 38.5821C91.2643 38.8475 90.9872 39.0788 90.746 39.2763C90.3762 39.6689 89.9429 39.7245 89.4461 39.4431C89.0026 39.1739 88.936 38.8502 89.2464 38.4722C89.324 38.3777 89.4447 38.279 89.6083 38.176C91.3032 36.7671 92.4034 35.9379 92.9089 35.6884C93.0604 35.6388 93.3253 35.4607 93.7035 35.1542C94.1145 34.8271 94.551 34.4497 95.0129 34.0221C95.5076 33.5738 95.8561 33.2746 96.0586 33.1244C96.5023 32.7767 97.3377 31.8171 98.5648 30.2456C99.798 28.6474 100.653 27.6642 101.129 27.2959C101.632 26.9337 101.945 26.9769 102.067 27.4254C102.245 27.9987 101.709 28.9984 100.459 30.4244ZM113.659 36.3741C113.786 36.4311 113.964 36.5136 114.192 36.6215C114.446 36.7355 114.621 36.8313 114.715 36.9089C114.842 36.966 114.961 37.063 115.07 37.1999C115.185 37.3103 115.28 37.4442 115.357 37.6018C115.343 37.9072 115.137 38.1968 114.738 38.4706C114.372 38.7238 114.018 38.7412 113.675 38.5229C113.547 38.4659 113.351 38.4071 113.084 38.3464C112.823 38.259 112.606 38.1674 112.431 38.0716C112.284 37.9819 112.188 37.8479 112.144 37.6697C111.864 37.2976 111.273 36.9386 110.37 36.5928C109.494 36.2532 108.436 35.914 107.195 35.5754C105.98 35.2429 105.243 35.033 104.982 34.9456C104.734 34.8049 104.12 34.609 103.139 34.3577C102.446 34.1999 102.022 34.0895 101.869 34.0264C101.721 33.9366 101.535 33.7681 101.311 33.5208C100.992 33.1959 100.848 32.9667 100.878 32.8334C100.935 32.7062 101.173 32.6481 101.591 32.6592C102.377 32.5298 104.313 32.9565 107.399 33.9393C110.484 34.9222 112.571 35.7337 113.659 36.3741ZM101.411 57.1001C100.904 56.9848 100.599 56.7889 100.493 56.5125C100.388 56.2362 100.529 55.9878 100.915 55.7673C101.122 55.8425 101.371 55.3663 101.661 54.3387C101.984 53.2904 102.306 52.0598 102.628 50.6467C102.976 49.2397 103.223 48.3423 103.367 47.9545C103.557 47.2407 103.817 46.0379 104.146 44.3461C104.502 42.6604 104.827 41.5424 105.12 40.9923C105.214 40.7051 105.475 40.5403 105.906 40.4981C106.342 40.4291 106.653 40.542 106.838 40.8366C106.921 40.9675 106.938 41.1396 106.889 41.3529C106.846 41.5395 106.708 42.0267 106.472 42.8144C104.344 51.0515 103.133 55.6972 102.836 56.7516C102.693 56.8872 102.473 56.9914 102.176 57.064C101.906 57.1427 101.651 57.1547 101.411 57.1001ZM97.9521 40.3279C98.2939 40.1814 98.6478 40.29 99.0137 40.6537C99.4123 40.9969 99.4134 41.3617 99.0169 41.7481C98.8047 42.0644 98.2053 43.8349 97.2188 47.0596C97.0829 47.5335 97.0101 47.8534 97.0003 48.0195C97.0233 48.1649 97.1153 48.4382 97.2763 48.8395C97.4192 49.3207 97.1742 49.6575 96.5415 49.85C95.9415 50.0219 95.5046 49.9084 95.2309 49.5096L95.0146 49.1659L95.6009 46.7755C96.5877 42.9338 97.3714 40.7846 97.9521 40.3279ZM139.074 44.8101C139.02 45.05 138.496 45.6879 137.503 46.7238C136.536 47.7658 135.821 48.4442 135.357 48.7592C135.056 48.9712 135.023 49.1178 135.257 49.1991C135.411 49.2622 135.757 49.3411 136.296 49.4358C137.728 49.6775 138.478 50.0166 138.547 50.4529C138.728 50.8869 138.454 51.4134 137.724 52.0324C136.995 52.6515 136.484 52.8016 136.192 52.4827C135.911 52.3626 135.772 52.2329 135.776 52.0935C135.779 51.9542 135.902 51.7857 136.143 51.5883C136.435 51.2902 136.544 51.1188 136.47 51.0739C136.429 51.0084 136.216 50.9599 135.83 50.9282C135.671 50.8918 135.547 50.8778 135.461 50.8863C135.381 50.8681 135.248 50.8377 135.062 50.7952C134.875 50.7527 134.728 50.7194 134.622 50.6951C133.756 50.5542 133.23 50.4625 133.044 50.42C132.863 50.3508 132.718 50.2478 132.609 50.1108C132.453 49.935 132.392 49.7107 132.426 49.4381C132.436 49.272 132.496 49.1314 132.606 49.0163C132.716 48.9012 132.987 48.6965 133.419 48.4022C133.916 48.0666 134.623 47.4845 135.541 46.6559C136.465 45.8005 136.945 45.2929 136.982 45.1329C136.994 45.0796 136.88 45.0256 136.64 44.971C136.4 44.9164 136.058 44.8805 135.613 44.8633C134.51 44.7805 133.846 44.433 133.621 43.8209C133.464 43.6451 133.427 43.4403 133.508 43.2064C133.595 42.9458 133.694 42.758 133.805 42.6429C133.921 42.5012 134.07 42.3388 134.252 42.1559C134.44 41.9463 134.573 41.7942 134.65 41.6997C134.761 41.5846 134.959 41.3914 135.245 41.12C135.537 40.8219 135.758 40.5917 135.907 40.4294C136.089 40.2464 136.256 40.0041 136.409 39.7024C136.568 39.374 136.657 39.0437 136.677 38.7117C136.741 38.3057 136.828 38.0451 136.939 37.93C137.055 37.7883 137.305 37.6769 137.688 37.5958C138.011 37.5293 138.24 37.5112 138.373 37.5415C138.507 37.5719 138.638 37.6719 138.768 37.8416C138.856 37.9459 138.888 38.0513 138.864 38.158C138.872 38.244 138.807 38.4676 138.669 38.8287C138.266 39.8588 137.476 40.9269 136.299 42.033C135.721 42.6024 135.43 42.9568 135.426 43.0962C135.419 43.3749 135.813 43.4927 136.608 43.4493C137.077 43.3598 137.632 43.4442 138.275 43.7026C138.944 43.9671 139.21 44.3362 139.074 44.8101ZM149.749 50.3952C149.441 50.269 149.189 50.2677 148.993 50.3913C148.797 50.5148 148.644 50.6905 148.536 50.9183C148.461 51.1255 148.346 51.3237 148.191 51.5127C148.036 51.7017 147.851 51.7719 147.638 51.7234C147.398 51.6687 147.267 51.4426 147.246 51.0451C147.257 50.627 147.374 50.2331 147.599 49.8635C147.931 49.2661 148.061 48.6929 147.99 48.1439C147.909 47.7608 147.963 47.3385 148.152 46.8768C148.342 46.4151 148.633 46.0607 149.025 45.8136C149.424 45.5398 149.746 45.543 149.991 45.823C150.236 46.1031 150.344 46.3661 150.316 46.6122C150.315 46.8642 150.182 47.3248 149.917 47.9937C149.59 48.8165 149.45 49.2473 149.497 49.2861C149.553 49.411 149.716 49.4341 149.986 49.3554C150.283 49.2828 150.592 49.1568 150.913 48.9776C151.764 48.4422 152.436 47.894 152.928 47.333C153.453 46.7515 153.663 46.3225 153.558 46.0461C153.477 45.6631 152.794 45.3956 151.511 45.2436C150.227 45.0917 149.051 45.1464 147.982 45.4078C147.421 45.5324 147.019 45.5111 146.777 45.3437C146.534 45.1764 146.493 44.9285 146.652 44.6001C146.811 44.2717 147.134 44.0228 147.621 43.8533C147.954 43.6207 148.995 43.6053 150.744 43.8072C152.493 44.009 153.613 44.2639 154.104 44.5719C154.816 45.0146 155.111 45.6286 154.988 46.4139C154.898 47.1786 154.533 47.7966 153.893 48.2678C153.685 48.4447 153.535 48.6071 153.446 48.7549C153.389 48.8821 152.987 49.1692 152.24 49.6162C151.526 50.0425 151.018 50.3053 150.715 50.4046C150.471 50.4894 150.149 50.4862 149.749 50.3952ZM145.901 54.7351C146.283 54.2892 146.632 54.1724 146.948 54.3846C147.27 54.5702 147.323 55.0168 147.106 55.7245C146.918 56.5511 146.854 57.0134 146.916 57.1116C147.005 57.2159 147.302 57.1433 147.807 56.8938C148.122 56.7412 148.409 56.6522 148.667 56.6268C148.931 56.5748 149.398 56.555 150.069 56.5674C151.602 56.6079 152.223 57.2681 151.931 58.5478C151.774 59.241 151.16 60.0268 150.091 60.9051C149.51 61.3618 149.261 61.6556 149.343 61.7865C149.458 61.8969 149.947 61.9661 150.81 61.9943C150.89 62.0125 150.944 62.0247 150.97 62.0307C151.024 62.0429 151.09 62.058 151.17 62.0763C151.256 62.0678 151.326 62.0696 151.379 62.0818C151.439 62.0673 151.508 62.0691 151.588 62.0873C152.783 62.135 153.557 62.185 153.91 62.2372C154.289 62.2955 154.933 62.4842 155.842 62.8033C156.677 63.0775 157.182 63.2626 157.356 63.3584C157.558 63.4602 157.773 63.6215 158.003 63.8422C158.293 64.0483 158.412 64.3277 158.359 64.6804C158.313 65.0064 158.152 65.2221 157.876 65.3274C157.605 65.4061 157.305 65.3097 156.974 65.038C156.409 64.6852 155.46 64.357 154.127 64.0535C152.827 63.7294 151.686 63.5678 150.704 63.5686C150.426 63.5613 150 63.5205 149.428 63.4464C148.889 63.3516 148.509 63.2933 148.29 63.2714C146.126 63.1713 144.767 62.9181 144.214 62.5118C143.99 62.2645 143.883 62.0578 143.893 61.8918C143.909 61.6991 143.999 61.4252 144.164 61.0702C144.356 60.7212 144.495 60.4164 144.583 60.1559C144.79 59.6142 144.973 58.8707 145.132 57.9254C145.318 56.9862 145.385 56.3845 145.333 56.1202C145.205 55.6984 145.394 55.2367 145.901 54.7351ZM146.273 61.0455C146.652 61.1038 147.441 60.7787 148.64 60.0701C149.872 59.3409 150.424 58.7654 150.295 58.3436C150.19 58.0672 149.725 58.0174 148.899 58.194C147.771 58.4699 146.973 59.0175 146.506 59.8366C146.084 60.5818 146.006 60.9848 146.273 61.0455ZM135.933 55.2842C136.129 55.1606 136.334 55.1231 136.547 55.1717C136.793 55.1996 136.968 55.2954 137.071 55.4591C137.194 55.6555 137.344 56.1664 137.521 56.9918C137.697 57.8173 137.801 58.4718 137.831 58.9554C137.963 59.8547 137.797 60.3358 137.334 60.3987C136.904 60.4409 136.605 60.0924 136.436 59.353C136.401 59.2609 136.386 59.1451 136.389 59.0057C136.249 58.0203 136.066 57.3476 135.839 56.9876C135.41 56.1608 135.442 55.593 135.933 55.2842ZM132.275 55.461C132.947 54.9692 133.316 55.4456 133.379 56.8903C133.452 58.4211 133.465 59.3495 133.418 59.6755C133.405 59.9809 133.29 60.179 133.073 60.2698C132.862 60.334 132.662 60.2885 132.473 60.1333C132.311 59.9841 132.188 59.6617 132.104 59.166C131.932 57.5843 131.845 56.611 131.844 56.2462C131.869 55.8875 132.013 55.6257 132.275 55.461ZM127.486 55.801C127.6 55.5465 127.804 55.3266 128.099 55.1413C128.42 54.9621 128.682 54.9797 128.886 55.1943C129.061 55.2901 129.168 55.4968 129.208 55.8144C129.274 56.138 129.316 56.5683 129.334 57.1052C129.358 57.6154 129.395 57.9463 129.445 58.0978C129.515 58.899 129.467 59.6031 129.301 60.2103C129.161 60.8235 128.952 61.1264 128.673 61.1191C128.362 61.1323 128.134 61.0243 127.99 60.7952C127.851 60.5394 127.822 60.2382 127.901 59.8916C127.991 59.7438 128 59.3954 127.928 58.8463C127.863 58.2706 127.777 57.6621 127.671 57.021C127.565 56.3798 127.503 55.9731 127.486 55.801Z" fill="#565656"/>
</svg>
