<svg width="168" height="66" viewBox="0 0 168 66" fill="none" xmlns="http://www.w3.org/2000/svg">
<path d="M11.7387 31.8309C11.7656 31.8261 11.8987 31.6361 12.1379 31.2607C12.3772 30.8853 12.5688 30.7127 12.713 30.7428C12.9284 30.7048 13.1446 30.75 13.3616 30.8784C13.6008 30.975 13.7346 31.1041 13.7631 31.2657C13.8106 31.535 13.5372 32.1107 12.9431 32.9929C12.2682 33.8893 12.1684 34.2679 12.6436 34.1286C12.8004 34.0732 15.6731 33.1224 21.2616 31.2762C23.7771 30.5828 25.156 30.2147 25.3984 30.172C25.8023 30.1008 26.0842 30.2038 26.2442 30.481C26.4263 30.7265 26.4651 31.0251 26.3605 31.3767C26.2781 31.6967 26.08 31.9121 25.7664 32.0229C25.7125 32.0324 25.5763 32.1259 25.3577 32.3032C25.1612 32.4489 24.9759 32.5788 24.8016 32.6928C24.6274 32.8068 24.4215 32.8987 24.1839 32.9683C23.9732 33.0333 23.8243 32.9762 23.7372 32.7972C23.2557 32.7433 22.6807 32.7891 22.0122 32.9348C21.339 33.0535 20.8321 33.1706 20.4916 33.2862C20.151 33.4018 19.553 33.6322 18.6976 33.9774C17.8375 34.2956 17.3939 34.4571 17.367 34.4619C16.8696 34.6329 16.213 34.8458 15.3972 35.1007C14.6084 35.3509 13.9922 35.5567 13.5486 35.7182C13.1273 35.8481 12.6505 36.0571 12.1182 36.3453C11.5859 36.6335 11.1329 36.9772 10.759 37.3763C10.683 37.4174 10.5982 37.4879 10.5047 37.5877C10.4113 37.6875 10.3424 37.769 10.298 37.8324C10.2489 37.8688 10.1776 37.9369 10.0841 38.0367C10.0128 38.1048 9.94631 38.1998 9.88452 38.3218C9.82272 38.4437 9.76568 38.5926 9.71338 38.7684C9.53276 39.1612 9.09468 39.9049 8.39916 40.9993C7.70364 42.0937 7.26557 42.8374 7.08494 43.2302C7.01046 43.4376 6.8631 43.7829 6.64286 44.266C6.41787 44.7222 6.22853 45.1443 6.07483 45.5323C5.91638 45.8935 5.81813 46.2023 5.78008 46.4589C5.99551 46.4209 6.20697 46.4392 6.41446 46.5137C6.6172 46.5612 6.73282 46.6658 6.7613 46.8273C6.7803 46.935 6.69236 47.1449 6.49748 47.4569C6.30261 47.7689 6.08715 48.0429 5.85111 48.2789C5.54852 48.6099 5.16121 48.7754 4.68919 48.7753C4.24409 48.7705 3.95266 48.6137 3.81489 48.3048C3.70881 48.0181 3.7881 47.3655 4.05276 46.347C4.31268 45.3016 4.63436 44.3703 5.0178 43.553C5.33944 42.8577 5.89398 41.8297 6.68141 40.4692C7.46409 39.0818 8.00279 38.0427 8.2975 37.3522C8.54148 37.0037 9.03423 36.0978 9.77573 34.6343C10.5172 33.1708 11.1716 32.2363 11.7387 31.8309ZM19.1124 40.8178C18.794 40.9017 18.3909 41.0561 17.903 41.281C17.4151 41.5058 16.9945 41.7188 16.6413 41.9199C16.288 42.1211 15.8096 42.3998 15.2061 42.7561C14.6295 43.1077 14.2651 43.3246 14.113 43.407C13.6077 43.6904 13.2283 43.7434 12.9749 43.566C12.7437 43.3569 12.6146 43.0187 12.5878 42.5514C12.743 42.3297 12.9165 42.1325 13.1082 41.9598C13.2999 41.7872 13.4718 41.6597 13.6238 41.5774C13.7759 41.495 14.0175 41.3691 14.3486 41.1997C14.6796 41.0303 14.9481 40.8996 15.1541 40.8078C15.5564 40.5702 16.2233 40.2583 17.1548 39.8719C18.1131 39.4808 18.6684 39.2441 18.8204 39.1617C19.4065 38.864 19.8604 38.8396 20.1819 39.0883C20.5081 39.3639 20.554 39.7029 20.3195 40.1052C20.0803 40.4806 19.6779 40.7181 19.1124 40.8178ZM14.6544 45.7687C14.7257 45.7006 14.9071 45.627 15.1986 45.5479C15.4853 45.4418 15.768 45.3919 16.0468 45.3983C16.3208 45.3777 16.4539 45.4237 16.4459 45.5361C16.5283 45.6882 16.4784 45.8775 16.2962 46.104C16.1583 46.2671 16.0878 46.4184 16.0847 46.5578C16.0767 46.6702 16.1115 47.025 16.189 47.6222C16.2729 48.4126 16.3045 48.9068 16.2839 49.1048C16.2775 49.3836 16.3662 49.4929 16.5499 49.4328C16.6846 49.409 16.843 49.2839 17.0252 49.0574C17.4656 48.5633 18.123 47.9615 18.9975 47.252C19.8672 46.5155 20.508 46.0555 20.9199 45.8718C21.5773 45.506 22.1586 45.4174 22.6639 45.6059C23.196 45.7897 23.5231 46.1486 23.645 46.6824C23.7669 47.2162 23.7612 47.8141 23.6281 48.4762C23.5362 48.7423 23.4633 49.1161 23.4094 49.5977C23.3554 50.0792 23.258 50.4712 23.1169 50.7737C22.9759 51.0762 22.7343 51.4381 22.3921 51.8594C21.9881 52.4027 21.8471 52.7052 21.9691 52.767C22.0958 52.8557 22.5013 52.7148 23.1856 52.3442C23.512 52.1479 24.121 51.9017 25.0129 51.6056C25.8999 51.2826 26.4955 51.0387 26.7997 50.874C27.3367 50.6127 27.8174 50.5835 28.2419 50.7863C28.6933 50.9844 28.8406 51.3471 28.6837 51.8746C28.5838 52.2531 27.8433 52.6197 26.462 52.9743C25.8157 53.0883 25.2597 53.2419 24.794 53.435C24.3283 53.6282 23.8562 53.8642 23.3778 54.1429C22.8994 54.4216 22.4654 54.637 22.0757 54.789C21.7399 54.9315 21.1451 55.2585 20.2912 55.77C19.4596 56.2498 18.8465 56.5523 18.4521 56.6774C18.102 56.7391 17.7765 56.5466 17.4756 56.0999C17.3886 55.9209 17.3355 55.7775 17.3165 55.6698C17.2975 55.5621 17.3569 55.4267 17.4948 55.2635C17.6326 55.1004 17.7506 54.9824 17.8488 54.9096C17.974 54.832 18.1237 54.7361 18.2979 54.6221C18.4944 54.4764 18.6306 54.383 18.7066 54.3418C19.0948 54.0235 19.5772 53.4525 20.1538 52.6289C20.7258 51.7784 21.1393 51.053 21.3944 50.4527C21.6463 49.9918 21.8317 49.3899 21.9506 48.6471C22.0648 47.8773 22.034 47.4662 21.8581 47.4139C21.5889 47.4614 21.0566 47.7496 20.2614 48.2786C19.4883 48.7758 19.0867 49.0965 19.0566 49.2407C19.0344 49.2723 18.9323 49.4014 18.7501 49.6279C18.5679 49.8544 18.4546 49.9993 18.4102 50.0626C18.3659 50.126 18.2661 50.2685 18.1108 50.4903C17.9777 50.6803 17.8779 50.8229 17.8114 50.9179C17.7718 51.0082 17.6878 51.1618 17.5595 51.3788C17.4533 51.5641 17.3741 51.7447 17.3218 51.9205C17.2917 52.0646 17.2394 52.2405 17.1649 52.4479C17.1174 52.6507 17.0722 52.8669 17.0294 53.0966C17.0135 53.3215 16.9976 53.5464 16.9818 53.7713C17.0196 55.4028 17.0638 56.5196 17.1144 57.1215C17.2014 57.7725 17.2322 58.1836 17.2068 58.3546C17.2037 58.494 17.1466 58.6429 17.0357 58.8013C16.6888 59.1956 16.2936 59.2376 15.8501 58.927L15.47 58.6609L15.3015 57.2329C15.2193 56.1368 15.035 54.4617 14.7486 52.2076C14.4622 49.9536 14.2898 48.3458 14.2313 47.3843C14.1205 46.5987 14.2616 46.0601 14.6544 45.7687ZM67.9842 25.3701C67.4518 26.6024 67.4247 28.2592 67.9028 30.3406C68.0247 30.8744 68.1441 31.6308 68.2612 32.6097C68.3783 33.5886 68.4978 34.109 68.6198 34.1708C68.8241 34.3846 69.1559 34.2984 69.6153 33.9119C70.0747 33.5255 70.5159 33.1145 70.9389 32.679C71.3888 32.2387 71.693 32.074 71.8514 32.1849C72.0272 32.2372 72.1927 32.3885 72.3479 32.6388C72.5031 32.8891 72.568 33.0998 72.5426 33.2708C72.5268 33.4958 72.1109 33.9717 71.295 34.6986C70.4792 35.4256 69.8495 35.8698 69.406 36.0313C69.1731 36.1279 69.0234 36.2237 68.9569 36.3187C68.8951 36.4407 68.9291 36.9483 69.0588 37.8417C69.2108 38.7034 69.3208 39.1699 69.3889 39.2412C69.5203 39.3569 69.7738 39.2983 70.1492 39.0655C70.4708 38.8422 70.9888 38.4732 71.7033 37.9585C72.4399 37.4121 73.045 36.9861 73.5187 36.6805C74.1571 36.207 74.6632 36.0067 75.037 36.0796C75.3522 36.1351 75.4955 36.318 75.467 36.6285C75.4606 36.9073 75.2974 37.2415 74.9774 37.6311C74.3405 38.2709 72.7825 39.4341 70.3034 41.1207C70.0072 41.173 69.8503 41.4644 69.8328 41.995C69.8422 42.5209 69.9229 43.2147 70.0749 44.0764C70.2221 44.9112 70.2885 45.5242 70.2742 45.9154C70.3977 46.1435 70.5252 46.5514 70.6565 47.1391C70.7879 47.7268 70.8853 48.2788 70.9486 48.7952C71.0388 49.3068 71.1345 49.9286 71.2358 50.6604C71.3687 51.4144 71.4384 51.888 71.4447 52.0812C71.6885 52.6769 71.6211 53.1608 71.2425 53.5329C70.8639 53.9051 70.4529 53.9359 70.0094 53.6254C69.4519 53.1407 69.075 52.2631 68.8788 50.9927L68.7482 50.0162C69.1965 49.8816 69.4286 49.7018 69.4445 49.4769C69.4603 49.252 69.3234 48.5542 69.0337 47.3836C68.8517 46.666 68.6499 45.5216 68.4283 43.9503C68.229 42.3472 67.9987 41.2772 67.7374 40.7402C67.5554 39.5506 67.4304 38.4482 67.3624 37.4328C67.4164 36.9513 67.3047 36.5545 67.0276 36.2424C66.7457 35.9034 66.6657 35.5288 66.7878 35.1185C66.8527 34.8572 66.7215 33.5615 66.3939 31.2314C66.0663 28.9013 65.844 27.7188 65.7267 27.684C65.5525 27.798 65.2222 28.0506 64.7359 28.4418C64.2764 28.8282 63.8368 29.1695 63.417 29.4656C63.0242 29.757 62.6709 29.9581 62.3573 30.069C62.0531 30.2337 61.8472 30.3255 61.7395 30.3445C61.6587 30.3588 61.5415 30.3239 61.3879 30.2399C61.0901 30.1258 60.8882 29.9254 60.7821 29.6387C60.6712 29.3251 60.5763 28.7865 60.4972 28.023C60.3611 26.9364 60.2677 26.3281 60.2171 26.1982C60.1933 26.0636 60.0049 25.6248 59.6518 24.8819C59.2225 24.6521 59.2234 24.2633 59.6543 23.7153C60.1708 23.1799 60.6167 23.0319 60.992 23.2711C61.1837 23.5705 61.3816 24.0632 61.5858 24.7491C61.7901 25.435 61.9009 25.9846 61.9182 26.398C61.9926 27.1346 62.0487 27.6106 62.0867 27.826C62.1469 28.0098 62.2332 28.1056 62.3457 28.1136C62.6815 27.971 63.1171 27.686 63.6526 27.2584C64.188 26.8308 64.7631 26.3129 65.3777 25.7047C66.0193 25.0918 66.436 24.6991 66.6277 24.5264C67.038 24.1764 67.7651 23.5762 68.8091 22.7258C69.853 21.8753 70.4376 21.4113 70.5627 21.3337C70.8542 21.2545 71.133 21.2609 71.3991 21.3528C71.6873 21.413 71.8307 21.596 71.829 21.9017C71.8623 22.0902 71.7632 22.3159 71.532 22.5788C71.2959 22.8148 71.0084 23.0737 70.6694 23.3556C70.3525 23.6059 70.1498 23.7943 70.061 23.921C69.8202 24.1301 69.4606 24.374 68.9822 24.6527C68.526 24.8997 68.1934 25.1389 67.9842 25.3701ZM49.3009 32.7877C49.2756 32.9587 49.2233 33.1345 49.1441 33.3151C49.0648 33.4957 48.9943 33.6469 48.9325 33.7689C48.8929 33.8592 48.8557 33.9629 48.8208 34.0801C48.8081 34.1656 48.8358 34.2441 48.9039 34.3153C48.9673 34.3597 49.071 34.3969 49.2152 34.4271C49.4718 34.4651 49.6666 34.6251 49.7996 34.9071C49.9326 35.1891 50.0996 35.7427 50.3007 36.568C50.5271 37.2222 50.7155 37.897 50.8659 38.5924C51.0115 39.2608 51.1128 39.9926 51.1697 40.7878C51.2488 41.5513 51.3065 42.1936 51.3429 42.7147C51.3745 43.2089 51.4037 43.9257 51.4305 44.865C51.4842 45.7996 51.5127 46.4332 51.5158 46.7658C51.7691 47.4153 51.693 47.9285 51.2875 48.3054C50.958 48.6412 50.6134 48.577 50.2539 48.1128C50.1304 47.8847 49.9786 46.3149 49.7984 43.4036C49.6941 41.8671 49.4947 40.2641 49.2003 38.5945C48.9012 36.898 48.636 35.9452 48.4048 35.7361C48.305 35.6426 48.244 35.6117 48.2219 35.6434C48.1997 35.6751 48.149 35.7812 48.0697 35.9618C47.9081 36.4623 47.7021 37.0262 47.4518 37.6534C47.2283 38.2759 46.974 38.9593 46.6888 39.7037C46.4305 40.4434 46.2245 41.0073 46.0708 41.3953C46.0407 41.5395 45.8902 41.7881 45.6193 42.1413C45.3753 42.4898 45.1765 42.622 45.0228 42.538C44.1421 42.5823 44.1597 41.5796 45.0755 39.5301C45.7442 37.9684 46.0888 37.0885 46.1094 36.8905C46.4026 36.0336 46.8186 34.8496 47.3573 33.3386C47.923 31.8228 48.2954 30.7854 48.4745 30.2262C48.8389 29.3012 48.9879 28.6502 48.9214 28.2733C48.8597 27.9232 49.0458 27.6405 49.4799 27.4251C49.9409 27.205 50.2743 27.285 50.4801 27.6652C50.6068 27.7539 50.6472 27.9828 50.6012 28.3519C50.5822 28.7162 50.5354 29.0021 50.4609 29.2096C50.4134 29.4123 50.3286 29.7188 50.2066 30.1291C50.0798 30.5124 49.9966 30.7492 49.957 30.8394C49.8001 31.3669 49.5814 32.0163 49.3009 32.7877ZM98.7027 16.3302C98.8453 16.194 98.9926 16.0847 99.1447 16.0024C99.3237 15.9153 99.5257 15.8797 99.7506 15.8955C99.9708 15.8845 100.139 15.8964 100.257 15.9312C100.396 15.9344 100.612 15.9796 100.905 16.0668C101.22 16.1222 101.423 16.1698 101.514 16.2094C102.117 16.3251 102.578 16.577 102.896 16.9652C103.237 17.3216 103.423 17.7469 103.454 18.2411C103.486 18.7353 103.423 19.2462 103.266 19.7736C103.132 20.2694 102.936 20.7342 102.679 21.1682C102.524 21.39 102.367 21.6814 102.209 22.0425C102.073 22.372 101.913 22.6499 101.731 22.8764C101.522 23.1076 101.485 23.2114 101.619 23.1876C101.754 23.1639 102.018 23.0063 102.411 22.7149C102.831 22.4188 103.085 22.2074 103.173 22.0807C103.235 21.9587 103.428 21.8692 103.751 21.8123C104.096 21.7236 104.332 21.7236 104.459 21.8124C104.532 21.9106 104.587 22.0674 104.625 22.2828C104.69 22.4935 104.699 22.7002 104.651 22.903C104.626 23.074 104.528 23.1469 104.357 23.1215C104.249 23.1405 104.151 23.2133 104.062 23.3401C103.596 24.0053 102.106 25.0038 99.5923 26.3355C99.3325 26.4369 99.167 26.5216 99.0957 26.5897C99.0513 26.653 99.0078 26.7996 98.965 27.0292C98.8651 27.8798 98.6654 28.4009 98.366 28.5925C97.8923 28.8982 97.5455 28.8205 97.3254 28.3595C97.1322 27.8938 97.1346 27.4353 97.3327 26.9839C97.4151 26.6639 97.4318 26.2861 97.3827 25.8505C97.3289 25.388 97.2443 24.9864 97.1287 24.6459C97.04 24.3005 96.8943 23.8681 96.6917 23.3485C96.5112 22.7973 96.3932 22.4432 96.3378 22.2864C96.2317 21.9997 95.9475 21.4112 95.4851 20.521C95.0179 19.6038 94.7487 18.9432 94.6775 18.5393C94.535 18.2035 94.604 17.8859 94.8844 17.5865C95.1869 17.2555 95.518 17.0861 95.8776 17.0782C96.0217 17.1083 96.1168 17.1749 96.1627 17.2778C96.2038 17.3539 96.287 17.5891 96.4121 17.9835C96.5609 18.5126 96.9338 19.4464 97.5307 20.785C98.123 22.0966 98.4982 23.0439 98.6566 23.6268C98.7547 24.026 98.8711 24.2137 99.0057 24.1899C99.3226 23.9397 99.8549 23.1795 100.603 21.9092C101.346 20.6121 101.755 19.6237 101.829 18.9442C101.899 18.7098 101.879 18.5189 101.77 18.3716C101.656 18.1973 101.562 18.0611 101.49 17.9629C101.417 17.8647 101.265 17.7941 101.036 17.7513C100.828 17.6769 100.668 17.6357 100.556 17.6277C100.443 17.6198 100.302 17.6031 100.131 17.5778C99.9959 17.6015 99.6529 17.7036 99.1017 17.8841C98.7342 18.0045 98.51 18.0717 98.4292 18.086C98.3485 18.1002 98.2423 18.0495 98.1109 17.9339C97.848 17.7026 97.7403 17.4856 97.7878 17.2828C97.8576 17.0484 97.9526 16.8789 98.073 16.7744C98.2156 16.6382 98.4255 16.4901 98.7027 16.3302ZM106.002 31.7441C106.049 32.0134 106.129 32.152 106.242 32.16C106.354 32.1679 106.56 32.0761 106.86 31.8844C109.496 30.1424 111.17 29.875 111.883 31.0821C112.155 31.3672 112.278 31.9842 112.251 32.933C112.25 33.877 112.148 34.4781 111.944 34.7363C111.842 34.9485 111.735 35.2867 111.623 35.7508C111.537 36.2101 111.381 36.5847 111.155 36.8746C110.831 37.4036 110.675 37.7782 110.686 37.9983C110.68 38.2771 110.762 38.4292 110.934 38.4546C111.127 38.4483 111.389 38.3604 111.72 38.1909C112.078 38.0168 112.311 37.9202 112.419 37.9012C112.49 37.8331 112.925 37.7009 113.723 37.5046C114.544 37.2766 115.431 37.0367 116.387 36.785C117.337 36.5064 117.994 36.2934 118.356 36.1462C119.207 35.774 119.713 35.5737 119.875 35.5452C120.058 35.4851 120.225 35.4835 120.374 35.5406C120.694 35.623 120.88 35.8954 120.934 36.358C120.988 36.8205 120.879 37.1452 120.606 37.3321C120.459 37.4413 119.935 37.6171 119.033 37.8593C118.132 38.1015 117.15 38.358 116.087 38.6287C115.051 38.8947 114.363 39.0855 114.022 39.201C113.789 39.2976 113.478 39.4219 113.088 39.5739C112.694 39.699 112.342 39.8304 112.033 39.9682C111.747 40.0743 111.476 40.1915 111.221 40.3197C110.698 40.6618 110.133 40.8447 109.527 40.8684C108.947 40.8873 108.545 40.736 108.322 40.4144C108.099 40.0928 108.137 39.6002 108.436 38.9365C109.766 35.9256 110.52 33.9045 110.699 32.8734C110.694 32.3744 110.418 32.1455 109.87 32.1866C109.564 32.185 109.092 32.4209 108.454 32.8944C107.815 33.368 107.403 33.7877 107.218 34.1535C107.053 34.3214 106.982 34.6255 107.004 35.0659C107.048 35.4746 107.122 35.8919 107.225 36.318C107.328 36.7442 107.37 37.1394 107.351 37.5037C107.33 37.7017 107.344 38.0185 107.393 38.4541C107.442 38.8897 107.466 39.2603 107.464 39.566C107.458 39.8448 107.373 40.0681 107.208 40.236C106.809 40.8062 106.409 40.9044 106.01 40.5305C105.842 40.3657 105.721 40.1511 105.647 39.8865C105.595 39.5903 105.541 38.8918 105.486 37.7909C105.41 36.888 105.325 36.2505 105.232 35.8782C105.16 35.4743 104.893 34.508 104.429 32.9794C104.185 32.3838 104.114 31.9799 104.215 31.7676C104.312 31.5285 104.607 31.3099 105.099 31.112C105.234 31.0883 105.412 31.154 105.634 31.3093C105.851 31.4376 105.973 31.5826 106.002 31.7441ZM92.2731 35.3727C92.3301 35.2238 92.3594 34.9965 92.3611 34.6908C92.3896 34.3804 92.4506 34.1752 92.5441 34.0755C92.6598 33.944 92.8633 33.8387 93.1548 33.7595C93.451 33.7073 93.6696 33.766 93.8105 33.9355C93.9784 34.1002 94.0892 34.4139 94.143 34.8764C94.2079 35.0871 94.2364 35.2486 94.2285 35.3611C94.2475 35.4688 94.2863 35.5314 94.3449 35.5488C94.4257 35.5346 94.4795 35.5251 94.5065 35.5203C94.5556 35.4839 94.6427 35.4269 94.7678 35.3493C94.8882 35.2448 95.0134 35.1672 95.1433 35.1165C96.0193 34.5733 96.82 34.3905 97.5455 34.568C98.2931 34.7138 98.7476 35.2445 98.909 36.1601C99.023 36.8064 98.9793 37.6609 98.778 38.7237C98.5719 39.7596 98.4673 40.3473 98.4641 40.4867C98.5148 40.6166 98.6986 40.5564 99.0154 40.3062C99.8233 39.6917 100.456 39.3441 100.914 39.2634C101.129 39.2254 101.33 39.2595 101.515 39.3656C101.723 39.4401 101.841 39.5581 101.869 39.7197C101.92 39.8496 101.789 40.0531 101.477 40.3303C101.165 40.6074 100.922 40.803 100.747 40.917C100.622 40.9946 100.348 41.2512 99.9252 41.6867C99.5291 42.1175 99.1394 42.5055 98.756 42.8508C98.3949 43.1644 98.1311 43.3219 97.9648 43.3235C97.9157 43.3599 97.7977 43.4779 97.6107 43.6775C97.419 43.8501 97.2741 43.9728 97.1759 44.0457C97.1046 44.1138 96.9707 44.2207 96.7743 44.3664C96.5731 44.4852 96.4076 44.5699 96.2777 44.6205C96.17 44.6395 96.0195 44.6522 95.8262 44.6585C95.6599 44.6601 95.4865 44.6212 95.3059 44.542C95.157 44.485 94.925 44.4287 94.6098 44.3732C94.2898 44.2908 94.0823 44.2163 93.9873 44.1498C93.9192 44.0785 93.821 43.9153 93.6927 43.6603C93.5597 43.3783 93.4457 42.9681 93.3508 42.4295C93.3318 42.3218 93.1696 41.3231 92.8641 39.4333C92.5856 37.5388 92.3965 36.5449 92.2967 36.4514C92.1858 36.1378 92.178 35.7782 92.2731 35.3727ZM97.2791 36.3642C97.1381 36.1947 96.8974 36.1677 96.5568 36.2833C96.2384 36.3672 95.8875 36.5818 95.5042 36.927C95.219 37.1994 95.0257 37.4418 94.9243 37.654C94.8182 37.8393 94.7667 38.0983 94.7698 38.4309C94.7333 38.8538 94.8219 39.6712 95.0356 40.883C95.2492 42.0947 95.3988 42.707 95.4844 42.7197C95.6016 42.7545 95.7513 42.6587 95.9335 42.4322C96.1426 42.201 96.3176 41.9341 96.4587 41.6316C96.9118 40.5799 97.2256 39.525 97.4 38.4669C97.5696 37.3819 97.5293 36.681 97.2791 36.3642ZM157.588 8.07115C157.544 8.1345 157.472 8.59147 157.372 9.44206C157.267 10.2657 157.137 10.7884 156.982 11.0101C156.817 11.178 156.721 11.5003 156.694 11.9771C156.667 12.4539 156.636 12.7509 156.602 12.8681C156.54 12.9901 156.514 13.1611 156.525 13.3813C156.603 13.5064 156.553 13.9317 156.376 14.6572C156.193 15.3557 155.991 16.0993 155.769 16.8881C155.548 17.6769 155.422 18.1434 155.391 18.2875C155.429 18.5029 155.72 18.3406 156.263 17.8006C156.686 17.365 156.907 16.9651 156.927 16.6008C156.906 16.3268 156.891 15.9268 156.882 15.4009C156.894 14.8434 156.892 14.3579 156.875 13.9445C156.884 13.5263 156.895 13.2744 156.908 13.1889C156.873 12.8341 157.044 12.6234 157.421 12.557C157.825 12.4857 158.132 12.5705 158.341 12.8113C158.418 12.9365 158.512 13.3087 158.621 13.9281C158.752 14.5157 158.808 14.9086 158.787 15.1066C158.702 15.5659 159.083 15.5264 159.932 14.9879C160.286 14.7868 160.594 14.5659 160.857 14.3252C161.053 14.1795 161.344 14.0171 161.729 13.8382C162.109 13.6323 162.407 13.5104 162.622 13.4724C162.784 13.4439 162.944 13.4852 163.102 13.5961C163.283 13.6753 163.387 13.7957 163.416 13.9572C163.476 14.141 163.314 14.4055 162.931 14.7508C162.57 15.0643 162.155 15.3874 161.686 15.72C161.212 16.0256 160.73 16.3606 160.239 16.7248C159.748 17.0891 159.424 17.382 159.269 17.6038C159.016 17.8984 158.891 18.2951 158.896 18.7941C158.928 19.2883 159.128 20.5856 159.499 22.686C159.834 24.4316 160.142 26.3348 160.422 28.3956C160.702 30.4564 160.987 32.3081 161.277 33.9507L161.69 36.2935L161.393 36.9706C161.119 37.4632 160.874 37.7285 160.659 37.7665C160.47 37.7997 160.122 37.6389 159.616 37.284C159.14 36.9513 158.859 36.6954 158.772 36.5164C158.676 36.2836 158.674 36.1173 158.768 36.0175C158.866 35.9446 159.007 35.8781 159.191 35.818C159.406 35.78 159.563 35.7246 159.661 35.6517C159.745 35.4981 159.679 34.8851 159.462 33.8127C159.245 32.7403 159.121 32.0402 159.091 31.7123C159.03 30.8902 158.697 28.686 158.092 25.0998C157.484 21.653 157.11 19.8448 156.969 19.6753C156.864 19.5549 156.656 19.6333 156.344 19.9104C156.295 19.9469 156.259 19.9809 156.237 20.0126C155.746 20.3768 155.358 20.6952 155.073 20.9676C154.81 21.2083 154.645 21.3762 154.578 21.4712C154.507 21.5393 154.362 21.662 154.144 21.8394C153.947 21.9851 153.626 22.2084 153.179 22.5093C152.656 22.8514 152.305 23.066 152.126 23.1531C151.969 23.2085 151.752 23.233 151.473 23.2266C150.974 23.2313 150.685 23.0879 150.606 22.7964C150.526 22.505 150.71 22.2088 151.157 21.9079C151.518 21.5943 151.954 21.0733 152.464 20.3447C152.969 19.5892 153.327 18.943 153.538 18.4061C153.705 17.9325 153.876 17.4858 154.052 17.0661C154.227 16.6464 154.346 16.3755 154.408 16.2536C154.465 16.1047 154.52 15.9423 154.572 15.7665C154.62 15.5638 154.645 15.3927 154.648 15.2533C154.647 15.087 154.636 14.8668 154.615 14.5928C154.48 14.6165 154.299 14.6901 154.071 14.8137C153.865 14.9055 153.695 14.9633 153.56 14.987C153.448 14.9791 153.169 14.9727 152.724 14.9679C152.283 14.99 151.963 14.9076 151.764 14.7207C151.591 14.529 151.491 14.1995 151.465 13.7322C151.519 12.7787 151.466 11.7744 151.308 10.7195C151.177 9.65978 150.988 8.90182 150.741 8.4456C150.566 8.0876 150.41 7.907 150.27 7.90381C150.158 7.89588 149.923 8.06216 149.567 8.40267C148.921 8.98865 148.437 9.15728 148.115 8.90855C147.984 8.7929 147.928 8.63608 147.949 8.43808C147.969 8.24009 148.634 7.20663 149.943 5.33772C151.274 3.43713 152.051 2.41161 152.274 2.26116C152.775 1.95077 153.129 1.91597 153.338 2.15677C153.574 2.39281 153.517 2.77771 153.167 3.31146C152.419 4.58171 151.975 5.3681 151.834 5.67062C151.72 5.96839 151.722 6.21787 151.841 6.41905C151.965 6.64716 152.094 6.59649 152.231 6.26704C152.313 5.94709 152.696 5.51868 153.378 4.9818C154.083 4.41325 154.769 3.973 155.436 3.66105C156.071 3.32692 156.689 3.2874 157.289 3.54251C157.619 3.67878 157.835 3.95996 157.938 4.38607C158.063 4.7805 158.101 5.23194 158.052 5.74039C157.998 6.22191 157.923 6.66541 157.828 7.0709C157.755 7.44471 157.675 7.77813 157.588 8.07115ZM156.576 5.87561C156.626 5.36716 156.522 5.09391 156.265 5.05586C156.036 5.01306 155.727 5.15082 155.339 5.46915C154.946 5.76055 154.734 5.97831 154.704 6.12245C154.674 6.26659 154.811 6.49233 155.115 6.79966C155.446 7.10225 155.679 7.24167 155.814 7.21793C156.007 7.21162 156.176 7.07067 156.322 6.79508C156.468 6.51949 156.553 6.213 156.576 5.87561ZM154.364 7.97329C154.332 7.95111 154.278 7.87744 154.2 7.7523C154.145 7.59548 154.115 7.5036 154.11 7.47667C154.105 7.44974 154.069 7.40064 154.001 7.32935C153.959 7.25331 153.925 7.21767 153.898 7.22241C153.867 7.20023 153.811 7.19627 153.73 7.21051C153.671 7.19308 153.604 7.20495 153.528 7.24612C153.479 7.28255 153.405 7.33718 153.307 7.41003C153.236 7.47814 153.142 7.57791 153.026 7.70937L152.525 8.17261L152.694 8.89255C152.833 9.36777 152.934 9.62756 152.998 9.67192C153.061 9.71628 153.291 9.60622 153.689 9.34175C154.087 9.07728 154.341 8.86586 154.452 8.70747C154.536 8.55384 154.507 8.30911 154.364 7.97329ZM154.632 10.6748C154.515 10.6399 154.269 10.8221 153.896 11.2212C153.544 11.5886 153.368 11.7723 153.368 11.7723C153.287 11.7866 153.228 11.922 153.19 12.1786C153.174 12.4035 153.185 12.6237 153.223 12.8391C153.226 13.1718 153.295 13.3262 153.43 13.3025C153.64 13.2375 153.776 13.061 153.836 12.7727C153.871 12.6555 153.857 12.5747 153.793 12.5303C153.724 12.2927 153.708 12.1288 153.748 12.0385C153.815 11.9435 153.969 11.8746 154.211 11.8318C154.831 11.7226 155.098 11.4257 155.012 10.941C154.989 10.8063 154.947 10.7303 154.889 10.7129C154.852 10.6637 154.767 10.6511 154.632 10.6748ZM140.535 14.5766C140.449 14.5639 140.275 14.6779 140.012 14.9186C139.771 15.1277 139.497 15.3842 139.19 15.6883C138.91 15.9877 138.72 16.1738 138.622 16.2466C138.473 16.1896 138.368 16.694 138.306 17.7601C138.244 18.8261 138.222 19.6489 138.241 20.2287C138.316 20.9652 138.251 22.0178 138.048 23.3863C137.841 24.7279 137.727 25.4977 137.706 25.6957C137.676 26.7839 137.57 27.7604 137.39 28.6252C137.239 29.3459 137.084 29.8037 136.924 29.9985C136.786 30.1616 136.574 30.1434 136.289 29.9438C136.167 29.882 136.083 29.7996 136.038 29.6966C136.014 29.562 135.98 29.2903 135.935 28.8816C135.877 28.3922 135.902 27.4299 136.01 25.9948C136.117 24.5598 136.246 23.3987 136.395 22.5117C136.444 22.4753 136.457 22.1538 136.433 21.5471C136.436 20.9357 136.425 20.2435 136.4 19.4705C136.402 18.6928 136.428 18.1328 136.479 17.7907C136.56 17.3044 136.408 16.4427 136.023 15.2056C135.66 13.9367 135.558 13.1218 135.717 12.7606C135.904 12.5611 136.169 12.5698 136.513 12.7869C136.879 12.9723 137.167 13.2685 137.377 13.6756C137.634 14.1857 137.834 14.4558 137.978 14.4859C138.145 14.4844 138.459 14.2207 138.922 13.6949C139.411 13.1643 139.716 12.8467 139.837 12.7422C140.198 12.4286 140.391 12.1863 140.417 12.0152C140.442 11.8442 140.367 11.2605 140.191 10.2641C140.158 10.0756 140.125 9.88713 140.091 9.69863C140.058 9.51013 140.032 9.36203 140.013 9.25431C139.994 9.1466 139.975 9.03889 139.956 8.93117C139.959 8.79178 139.958 8.70862 139.954 8.6817C139.944 8.62784 139.935 8.57398 139.925 8.52013C139.943 8.46152 139.951 8.43222 139.951 8.43222C139.974 8.40054 139.996 8.36886 140.018 8.33719C140.062 8.27384 140.098 8.23978 140.125 8.23504C140.147 8.20336 140.196 8.16694 140.272 8.12576C140.343 8.05766 140.404 8.0054 140.453 7.96897C140.822 8.01496 141.09 8.12033 141.258 8.28509C141.426 8.44985 141.543 8.72072 141.61 9.09772C141.671 9.44779 141.746 9.94834 141.833 10.5994C141.983 11.7668 142.066 12.474 142.082 12.7211C142.125 12.9635 142.11 13.2716 142.037 13.6454C141.991 14.0145 141.961 14.3946 141.946 14.7858C141.897 15.2943 141.718 16.0894 141.409 17.1712C141.095 18.2261 140.821 18.9547 140.587 19.357C140.246 19.9446 140.197 20.2171 140.439 20.1743C140.493 20.1648 140.922 19.6034 141.725 18.49C142.528 17.3765 142.959 16.8285 143.018 16.846C143.583 16.7462 143.969 16.8865 144.175 17.2667C144.376 17.6199 144.551 18.2971 144.699 19.2982C145.079 23.3406 145.249 26.823 145.209 29.7454C145.194 30.1367 145.013 30.4463 144.665 30.6743C144.311 30.8755 144.017 30.858 143.781 30.6219C143.542 30.5253 143.369 29.8616 143.263 28.6308C143.179 27.3684 143.206 26.6556 143.344 26.4924C143.458 26.1947 143.504 25.8256 143.482 25.3853C143.482 24.9132 143.454 24.3628 143.399 23.734C143.344 23.1051 143.315 22.6244 143.311 22.2917C143.237 20.6111 143.139 19.7399 143.017 19.6781C142.949 19.6068 142.622 19.9561 142.036 20.7258C140.908 22.2019 140.209 22.9637 139.94 23.0112C139.778 23.0397 139.573 22.9787 139.324 22.8281C139.098 22.646 138.957 22.4764 138.902 22.3196C138.784 22.2848 138.789 22.0757 138.916 21.6924C139.065 21.2774 139.214 20.8624 139.363 20.4474C139.539 20.0277 139.608 19.7933 139.572 19.7442C139.62 19.5414 139.84 18.8223 140.233 17.5869C140.621 16.3245 140.774 15.3813 140.692 14.7572C140.668 14.6225 140.616 14.5623 140.535 14.5766Z" fill="#565656"/>
</svg>
